<?xml version="1.0" encoding="utf-8"?>
<!-- Generator: Adobe Illustrator 27.5.0, SVG Export Plug-In . SVG Version: 6.00 Build 0)  -->
<svg version="1.1" xmlns="http://www.w3.org/2000/svg" xmlns:xlink="http://www.w3.org/1999/xlink" x="0px" y="0px"
	 viewBox="0 0 141.73 141.73" style="enable-background:new 0 0 141.73 141.73;" xml:space="preserve">
<style type="text/css">
	.st0{fill:#2C2C2C;}
	.st1{fill:#CDCDCD;}
</style>
<g id="Bildmarke">
	<rect x="0" y="0" class="st0" width="141.73" height="141.73"/>
	<g>
		<g>
			<g>
				<path class="st1" d="M17.84,50.31h16.68c7.81,0,13.57,3.05,13.57,10.34c0,4.82-3.47,7.87-7.46,9.05
					c5.17,1.29,8.58,4.76,8.58,10.05c0,8.93-7.69,11.69-15.86,11.69H17.84V50.31z M33.7,67.22c5.11,0,7.69-2.17,7.69-5.87
					c0-3.35-2.17-5.58-7.52-5.58H24.3v11.45H33.7z M33.94,85.9c5.87,0,8.57-2.29,8.57-6.64c0-4.17-2.35-6.58-8.69-6.58H24.3V85.9
					H33.94z"/>
			</g>
		</g>
		<g>
			<g>
				<path class="st1" d="M92.78,77.74h6.75c0.35,5.82,4.11,9.16,9.63,9.16c5.11,0,8.75-2.53,8.75-6.58c0-3.52-2.7-5.11-7.58-6.28
					l-4.88-1.23c-6.17-1.53-11.22-5.17-11.22-11.63c0-6.87,6.4-11.87,14.57-11.87c8.75,0,14.57,5.17,15.04,12.98h-6.7
					c-0.29-4.35-3.52-7.46-8.58-7.46c-4.23,0-7.69,2.29-7.69,5.76c0,3.41,2.47,4.93,7.11,6.17l5.29,1.35
					c6.46,1.65,11.34,4.99,11.34,11.57c0,7.17-6.23,12.69-15.63,12.69C99.3,92.37,93.19,86.67,92.78,77.74z"/>
			</g>
		</g>
		<g>
			<rect x="54.56" y="68.59" class="st1" width="33.16" height="4.56"/>
		</g>
	</g>
</g>
<g id="Wortbildmarke">
</g>
<g id="Wortmarke">
</g>
</svg>
